<svg xmlns="http://www.w3.org/2000/svg" version="1.1" xmlns:xlink="http://www.w3.org/1999/xlink" xmlns:svgjs="http://svgjs.dev/svgjs" width="1000" height="252" viewBox="0 0 1000 252"><g transform="matrix(1,0,0,1,-0.6060414054242642,-0.18988011881185685)"><svg viewBox="0 0 396 100" data-background-color="#ffffff" preserveAspectRatio="xMidYMid meet" height="252" width="1000" xmlns="http://www.w3.org/2000/svg" xmlns:xlink="http://www.w3.org/1999/xlink"><g id="tight-bounds" transform="matrix(1,0,0,1,0.2399923965480184,0.07534925349676769)"><svg viewBox="0 0 395.52 99.84930149300646" height="99.84930149300646" width="395.52"><g><svg viewBox="0 0 538.9567783604249 136.06001682395208" height="99.84930149300646" width="395.52"><g><rect width="3.7780502746780362" height="136.06001682395208" x="129.76854412062113" y="0" fill="#0e1428" opacity="1" stroke-width="0" stroke="transparent" fill-opacity="1" class="rect-o-0" data-fill-palette-color="primary" rx="1%" id="o-0" data-palette-color="#0e1428"></rect></g><g transform="matrix(1,0,0,1,143.4367783604249,0.33845775329341166)"><svg viewBox="0 0 395.52 135.38310131736526" height="135.38310131736526" width="395.52"><g id="textblocktransform"><svg viewBox="0 0 395.52 135.38310131736526" height="135.38310131736526" width="395.52" id="textblock"><g><svg viewBox="0 0 395.52 135.38310131736526" height="135.38310131736526" width="395.52"><g transform="matrix(1,0,0,1,0,0)"><svg width="395.52" viewBox="1.9999990463256836 -37.01000213623047 367.6999816894531 121.4000015258789" height="135.38310131736526" data-palette-color="#0e1428"><svg></svg><svg></svg><svg></svg><g class="undefined-text-0" data-fill-palette-color="primary" id="text-0"><path xmlns="http://www.w3.org/2000/svg" d="M2-30.3v-6.71h14.21c1.693 0 3.317 0.22 4.87 0.66 1.553 0.44 3.003 1.057 4.35 1.85 1.34 0.8 2.56 1.757 3.66 2.87 1.1 1.113 2.04 2.353 2.82 3.72 0.78 1.373 1.383 2.847 1.81 4.42 0.42 1.58 0.63 3.227 0.63 4.94v0c0 1.707-0.21 3.35-0.63 4.93-0.427 1.58-1.03 3.057-1.81 4.43-0.78 1.373-1.72 2.627-2.82 3.76-1.1 1.127-2.32 2.093-3.66 2.9-1.347 0.807-2.797 1.43-4.35 1.87-1.553 0.44-3.177 0.66-4.87 0.66v0h-14.21v-6.69h2.96v-23.61zM16.16-30.3h-3.1v23.61h3.1c1.32 0 2.567-0.31 3.74-0.93 1.173-0.613 2.19-1.453 3.05-2.52 0.86-1.067 1.543-2.32 2.05-3.76 0.507-1.44 0.76-2.99 0.76-4.65v0c0-1.647-0.253-3.187-0.76-4.62-0.507-1.433-1.19-2.677-2.05-3.73-0.86-1.06-1.877-1.89-3.05-2.49-1.173-0.607-2.42-0.91-3.74-0.91zM57.64 0v-6.69h3.69l-1.66-5.32h-11.38l-1.66 5.32h3.91v6.69h-14.04v-6.69h2.76l10.08-30.32h9.79l9.86 30.32h2.69v6.69zM53.93-30.3l-3.71 12.04h7.47zM78.91 0v-6.69h3.83v-23.85h-4.49v4.78h-7.96v-11.25h33.67v11.25h-8.01v-4.78h-5.11v23.85h3.91v6.69zM124.07 0v-6.69h3.69l-1.66-5.32h-11.38l-1.66 5.32h3.91v6.69h-14.04v-6.69h2.76l10.08-30.32h9.79l9.86 30.32h2.69v6.69zM120.36-30.3l-3.71 12.04h7.47z" fill="#0e1428" fill-rule="nonzero" stroke="none" stroke-width="1" stroke-linecap="butt" stroke-linejoin="miter" stroke-miterlimit="10" stroke-dasharray="" stroke-dashoffset="0" font-family="none" font-weight="none" font-size="none" text-anchor="none" style="mix-blend-mode: normal" data-fill-palette-color="primary" opacity="1"></path><path xmlns="http://www.w3.org/2000/svg" d="M2.76 11.57v-6.71h17.09c1.907 0 3.657 0.297 5.25 0.89 1.593 0.593 2.967 1.393 4.12 2.4 1.16 1.013 2.063 2.18 2.71 3.5 0.653 1.313 0.98 2.687 0.98 4.12v0c0 1.727-0.257 3.343-0.77 4.85-0.513 1.507-1.307 2.813-2.38 3.92-1.073 1.107-2.433 1.98-4.08 2.62-1.64 0.64-3.583 0.96-5.83 0.96v0h-5.15v7.06h3.39v6.69h-15.33v-6.69h3.83v-23.61zM18.04 11.57h-3.34v9.94h3.34c1.86 0 3.333-0.39 4.42-1.17 1.093-0.787 1.64-2.023 1.64-3.71v0c0-1.58-0.513-2.82-1.54-3.72-1.027-0.893-2.533-1.34-4.52-1.34zM36.94 11.57v-6.71h19.58c1.907 0 3.607 0.283 5.1 0.85 1.5 0.573 2.763 1.337 3.79 2.29 1.02 0.947 1.803 2.053 2.35 3.32 0.547 1.26 0.82 2.573 0.82 3.94v0c0 1.253-0.133 2.35-0.4 3.29-0.273 0.947-0.667 1.787-1.18 2.52-0.507 0.733-1.137 1.38-1.89 1.94-0.747 0.56-1.6 1.07-2.56 1.53v0c0.827 0.42 1.56 1.067 2.2 1.94 0.633 0.867 1.113 1.993 1.44 3.38v0l1.24 4.81h3.05l0.05 7.2h-10.74l-1.46-8.79c-0.147-1.04-0.373-1.94-0.68-2.7-0.3-0.753-0.7-1.37-1.2-1.85-0.507-0.48-1.123-0.833-1.85-1.06-0.72-0.233-1.577-0.35-2.57-0.35v0h-3.15v8.06h3.39v6.69h-15.33v-6.69h3.83v-23.61zM53.74 11.57h-4.86v8.96h4.86c0.927 0 1.76-0.083 2.5-0.25 0.74-0.173 1.373-0.443 1.9-0.81 0.533-0.367 0.94-0.827 1.22-1.38 0.287-0.553 0.43-1.213 0.43-1.98v0c0-1.433-0.513-2.547-1.54-3.34-1.027-0.8-2.53-1.2-4.51-1.2zM91.04 42.53v0c-1.673 0-3.277-0.227-4.81-0.68-1.527-0.46-2.953-1.103-4.28-1.93-1.327-0.833-2.533-1.83-3.62-2.99-1.08-1.167-2.003-2.463-2.77-3.89-0.767-1.42-1.36-2.943-1.78-4.57-0.427-1.627-0.64-3.33-0.64-5.11v0c0-1.773 0.213-3.477 0.64-5.11 0.42-1.633 1.013-3.163 1.78-4.59 0.767-1.427 1.69-2.72 2.77-3.88 1.087-1.167 2.293-2.163 3.62-2.99 1.327-0.833 2.753-1.477 4.28-1.93 1.533-0.46 3.137-0.69 4.81-0.69v0c1.673 0 3.28 0.23 4.82 0.69 1.54 0.453 2.973 1.097 4.3 1.93 1.327 0.827 2.53 1.823 3.61 2.99 1.087 1.16 2.017 2.453 2.79 3.88 0.767 1.427 1.363 2.957 1.79 4.59 0.42 1.633 0.63 3.337 0.63 5.11v0c0 1.76-0.21 3.457-0.63 5.09-0.427 1.64-1.023 3.17-1.79 4.59-0.773 1.427-1.703 2.723-2.79 3.89-1.08 1.16-2.283 2.157-3.61 2.99-1.327 0.827-2.76 1.47-4.3 1.93-1.54 0.453-3.147 0.68-4.82 0.68zM91.04 34.86v0c1.413 0 2.71-0.303 3.89-0.91 1.18-0.613 2.193-1.443 3.04-2.49 0.847-1.053 1.503-2.273 1.97-3.66 0.46-1.393 0.69-2.873 0.69-4.44v0c0-1.573-0.233-3.06-0.7-4.46-0.473-1.4-1.137-2.627-1.99-3.68-0.853-1.047-1.867-1.877-3.04-2.49-1.173-0.607-2.46-0.91-3.86-0.91v0c-1.4 0-2.687 0.303-3.86 0.91-1.173 0.613-2.18 1.443-3.02 2.49-0.847 1.053-1.51 2.28-1.99 3.68-0.48 1.4-0.72 2.887-0.72 4.46v0c0 1.567 0.24 3.047 0.72 4.44 0.48 1.387 1.143 2.607 1.99 3.66 0.84 1.047 1.847 1.877 3.02 2.49 1.173 0.607 2.46 0.91 3.86 0.91zM145.63 16.11h-7.54c-0.913-1.3-1.737-2.223-2.47-2.77-0.733-0.547-1.523-0.937-2.37-1.17-0.847-0.233-1.733-0.35-2.66-0.35v0c-1.367 0-2.637 0.303-3.81 0.91-1.173 0.613-2.187 1.443-3.04 2.49-0.853 1.053-1.523 2.273-2.01 3.66-0.487 1.393-0.73 2.873-0.73 4.44v0c0 1.573 0.24 3.057 0.72 4.45 0.48 1.393 1.143 2.61 1.99 3.65 0.847 1.04 1.853 1.867 3.02 2.48 1.173 0.607 2.46 0.91 3.86 0.91v0c0.98 0 1.893-0.157 2.74-0.47 0.84-0.32 1.607-0.74 2.3-1.26 0.693-0.52 1.3-1.117 1.82-1.79 0.52-0.68 0.927-1.387 1.22-2.12v0l7.86 2.2c-0.5 1.593-1.24 3.07-2.22 4.43-0.973 1.36-2.15 2.537-3.53 3.53-1.373 0.993-2.917 1.773-4.63 2.34-1.72 0.573-3.573 0.86-5.56 0.86v0c-1.673 0-3.277-0.227-4.81-0.68-1.527-0.46-2.953-1.103-4.28-1.93-1.327-0.833-2.533-1.837-3.62-3.01-1.08-1.167-2.003-2.463-2.77-3.89-0.767-1.427-1.36-2.957-1.78-4.59-0.42-1.633-0.63-3.337-0.63-5.11v0c0-2.653 0.463-5.14 1.39-7.46 0.927-2.32 2.197-4.347 3.81-6.08 1.607-1.733 3.497-3.1 5.67-4.1 2.173-1.007 4.513-1.51 7.02-1.51v0c2 0 3.683 0.25 5.05 0.75 1.373 0.493 2.88 1.473 4.52 2.94v0h5.47zM151.78 12.23v-7.37h29.45v12.62h-7.96v-5.25h-9.5v7.3h7.35v7.08h-7.35v8.57h9.5v-6.57h7.96v13.26h-29.45v-6.69h3.88v-22.95zM203.27 17.43v-2.15c-0.08-0.567-0.28-1.103-0.6-1.61-0.313-0.507-0.72-0.94-1.22-1.3-0.493-0.367-1.053-0.657-1.68-0.87-0.627-0.213-1.283-0.32-1.97-0.32v0c-0.613 0-1.19 0.067-1.73 0.2-0.54 0.127-1.007 0.323-1.4 0.59-0.4 0.273-0.72 0.62-0.96 1.04-0.233 0.427-0.35 0.933-0.35 1.52v0c0 0.727 0.16 1.307 0.48 1.74 0.313 0.433 0.72 0.787 1.22 1.06 0.493 0.28 1.04 0.5 1.64 0.66 0.607 0.167 1.193 0.347 1.76 0.54v0l6.72 2.25c0.927 0.32 1.797 0.767 2.61 1.34 0.813 0.567 1.517 1.257 2.11 2.07 0.593 0.813 1.06 1.75 1.4 2.81 0.347 1.06 0.52 2.25 0.52 3.57v0c0 1.787-0.33 3.42-0.99 4.9-0.66 1.487-1.583 2.757-2.77 3.81-1.193 1.06-2.62 1.883-4.28 2.47-1.66 0.587-3.497 0.88-5.51 0.88v0c-1.42 0-2.76-0.16-4.02-0.48-1.26-0.32-2.41-0.78-3.45-1.38-1.047-0.6-1.96-1.32-2.74-2.16-0.78-0.84-1.39-1.787-1.83-2.84v0h-2.51v-7.35h8.83v1.51c0 0.733 0.12 1.41 0.36 2.03 0.233 0.62 0.587 1.157 1.06 1.61 0.473 0.453 1.067 0.807 1.78 1.06 0.72 0.253 1.56 0.38 2.52 0.38v0c1.46 0 2.573-0.337 3.34-1.01 0.767-0.68 1.15-1.62 1.15-2.82v0c0-0.62-0.133-1.137-0.4-1.55-0.273-0.42-0.62-0.77-1.04-1.05-0.427-0.287-0.9-0.527-1.42-0.72-0.52-0.2-1.033-0.38-1.54-0.54v0l-5.59-1.81c-1.053-0.327-2.073-0.78-3.06-1.36-0.987-0.587-1.857-1.32-2.61-2.2-0.76-0.88-1.363-1.91-1.81-3.09-0.447-1.18-0.67-2.527-0.67-4.04v0c0-1.76 0.327-3.327 0.98-4.7 0.647-1.373 1.557-2.533 2.73-3.48 1.173-0.947 2.563-1.663 4.17-2.15 1.613-0.487 3.38-0.73 5.3-0.73v0c1.513 0 2.913 0.173 4.2 0.52 1.287 0.353 2.44 0.823 3.46 1.41 1.013 0.587 1.873 1.257 2.58 2.01 0.713 0.76 1.257 1.547 1.63 2.36v0h2.44v7.37zM233.67 17.43v-2.15c-0.087-0.567-0.287-1.103-0.6-1.61-0.32-0.507-0.727-0.94-1.22-1.3-0.5-0.367-1.063-0.657-1.69-0.87-0.627-0.213-1.28-0.32-1.96-0.32v0c-0.62 0-1.2 0.067-1.74 0.2-0.533 0.127-1 0.323-1.4 0.59-0.4 0.273-0.717 0.62-0.95 1.04-0.24 0.427-0.36 0.933-0.36 1.52v0c0 0.727 0.16 1.307 0.48 1.74 0.32 0.433 0.727 0.787 1.22 1.06 0.5 0.28 1.05 0.5 1.65 0.66 0.6 0.167 1.187 0.347 1.76 0.54v0l6.71 2.25c0.927 0.32 1.797 0.767 2.61 1.34 0.813 0.567 1.52 1.257 2.12 2.07 0.593 0.813 1.06 1.75 1.4 2.81 0.34 1.06 0.51 2.25 0.51 3.57v0c0 1.787-0.33 3.42-0.99 4.9-0.66 1.487-1.583 2.757-2.77 3.81-1.187 1.06-2.61 1.883-4.27 2.47-1.66 0.587-3.5 0.88-5.52 0.88v0c-1.413 0-2.75-0.16-4.01-0.48-1.267-0.32-2.42-0.78-3.46-1.38-1.04-0.6-1.95-1.32-2.73-2.16-0.78-0.84-1.39-1.787-1.83-2.84v0h-2.52v-7.35h8.84v1.51c0 0.733 0.117 1.41 0.35 2.03 0.24 0.62 0.597 1.157 1.07 1.61 0.467 0.453 1.06 0.807 1.78 1.06 0.713 0.253 1.55 0.38 2.51 0.38v0c1.467 0 2.583-0.337 3.35-1.01 0.76-0.68 1.14-1.62 1.14-2.82v0c0-0.62-0.133-1.137-0.4-1.55-0.267-0.42-0.613-0.77-1.04-1.05-0.42-0.287-0.89-0.527-1.41-0.72-0.52-0.2-1.033-0.38-1.54-0.54v0l-5.59-1.81c-1.06-0.327-2.083-0.78-3.07-1.36-0.98-0.587-1.85-1.32-2.61-2.2-0.753-0.88-1.353-1.91-1.8-3.09-0.453-1.18-0.68-2.527-0.68-4.04v0c0-1.76 0.327-3.327 0.98-4.7 0.653-1.373 1.567-2.533 2.74-3.48 1.167-0.947 2.557-1.663 4.17-2.15 1.613-0.487 3.38-0.73 5.3-0.73v0c1.513 0 2.913 0.173 4.2 0.52 1.287 0.353 2.437 0.823 3.45 1.41 1.02 0.587 1.883 1.257 2.59 2.01 0.707 0.76 1.247 1.547 1.62 2.36v0h2.44v7.37zM246.26 11.55v-6.69h15.85v6.69h-3.91v23.63h3.91v6.69h-15.85v-6.69h3.84v-23.63zM289.43 11.57v-6.71h14.06v6.71h-3v30.3h-8.11l-15.4-23.93v17.24h3.1v6.69h-14.04v-6.69h3.05v-23.61h-3v-6.71h11.18l15.31 24.24v-17.53zM341.63 41.87h-7.3v-6.35c-1.013 1.773-2 3.077-2.96 3.91-0.96 0.827-2.047 1.493-3.26 2-1.213 0.507-2.837 0.75-4.87 0.73v0c-1.007-0.013-2.017-0.13-3.03-0.35-1.007-0.22-1.98-0.53-2.92-0.93-0.947-0.4-1.873-0.88-2.78-1.44-0.9-0.56-1.717-1.207-2.45-1.94v0c-1.807-1.82-3.21-3.933-4.21-6.34-1-2.4-1.5-5.013-1.5-7.84v0c0-1.747 0.21-3.433 0.63-5.06 0.427-1.627 1.02-3.147 1.78-4.56 0.767-1.42 1.693-2.71 2.78-3.87 1.08-1.167 2.283-2.163 3.61-2.99 1.327-0.833 2.753-1.477 4.28-1.93 1.533-0.46 3.137-0.69 4.81-0.69v0c1.92 0 3.59 0.257 5.01 0.77 1.413 0.513 2.933 1.47 4.56 2.87v0h5.47v8.25h-7.54c-0.747-1.153-1.45-1.99-2.11-2.51-0.66-0.52-1.377-0.953-2.15-1.3-0.773-0.34-1.853-0.51-3.24-0.51v0c-1.367 0-2.637 0.31-3.81 0.93-1.167 0.62-2.177 1.453-3.03 2.5-0.86 1.053-1.533 2.29-2.02 3.71-0.487 1.427-0.73 2.89-0.73 4.39v0c0 1.48 0.22 2.887 0.66 4.22 0.44 1.333 1.107 2.533 2 3.6 0.893 1.067 1.933 1.883 3.12 2.45 1.193 0.573 2.463 0.86 3.81 0.86v0c1.727 0 3.233-0.507 4.52-1.52 1.287-1.007 2.213-2.38 2.78-4.12v0h-7.05v-6.69h17.14z" fill="#0e1428" fill-rule="nonzero" stroke="none" stroke-width="1" stroke-linecap="butt" stroke-linejoin="miter" stroke-miterlimit="10" stroke-dasharray="" stroke-dashoffset="0" font-family="none" font-weight="none" font-size="none" text-anchor="none" style="mix-blend-mode: normal" data-fill-palette-color="primary" opacity="1"></path><path xmlns="http://www.w3.org/2000/svg" d="M2.76 54.14v-7.42h28.64v12.62h-7.94v-5.2h-8.76v7.79h7.59v7.1h-7.59v8.01h3.9v6.69h-15.84v-6.69h3.83v-22.9zM34.16 53.43v-6.71h19.58c1.9 0 3.6 0.283 5.1 0.85 1.493 0.573 2.753 1.337 3.78 2.29 1.027 0.947 1.813 2.053 2.36 3.32 0.547 1.26 0.82 2.573 0.82 3.94v0c0 1.253-0.137 2.35-0.41 3.29-0.267 0.947-0.657 1.787-1.17 2.52-0.513 0.733-1.143 1.38-1.89 1.94-0.747 0.56-1.6 1.07-2.56 1.53v0c0.827 0.42 1.557 1.067 2.19 1.94 0.64 0.867 1.12 1.993 1.44 3.38v0l1.25 4.81h3.05l0.05 7.2h-10.74l-1.47-8.79c-0.147-1.04-0.37-1.94-0.67-2.7-0.3-0.753-0.703-1.37-1.21-1.85-0.5-0.48-1.113-0.833-1.84-1.06-0.727-0.233-1.587-0.35-2.58-0.35v0h-3.15v8.06h3.4v6.69h-15.33v-6.69h3.83v-23.61zM50.95 53.43h-4.86v8.96h4.86c0.927 0 1.76-0.083 2.5-0.25 0.747-0.173 1.383-0.443 1.91-0.81 0.527-0.367 0.933-0.827 1.22-1.38 0.287-0.553 0.43-1.213 0.43-1.98v0c0-1.433-0.513-2.547-1.54-3.34-1.027-0.8-2.533-1.2-4.52-1.2zM90.55 83.73v-6.69h3.69l-1.66-5.32h-11.38l-1.66 5.32h3.91v6.69h-14.04v-6.69h2.76l10.08-30.32h9.79l9.86 30.32h2.69v6.69zM86.84 53.43l-3.71 12.04h7.47zM107.91 83.73v-6.69h3.44v-23.61h-3.44v-6.71h15.23l10.92 26.71 10.13-26.71h15.45v6.71h-3.44v23.61h3.39v6.69h-13.84v-6.69h2.54v-21.29l-11.08 27.54h-6.86l-11.28-26.81v20.56h2.76v6.69zM165.16 54.09v-7.37h29.44v12.62h-7.95v-5.25h-9.5v7.3h7.35v7.08h-7.35v8.57h9.5v-6.57h7.95v13.26h-29.44v-6.69h3.88v-22.95zM237.3 53.43v-6.71h15.85v6.71h-3.35l-8.52 30.3h-10.54l-5.59-23.1-5.72 23.1h-10.45l-8.66-30.3h-3.74v-6.71h15.87v6.71h-3.86l5.45 19.95 6.57-26.59h9.08l6.44 26.59 5.47-19.95zM273.14 84.39v0c-1.673 0-3.277-0.227-4.81-0.68-1.527-0.46-2.953-1.103-4.28-1.93-1.327-0.833-2.53-1.83-3.61-2.99-1.087-1.167-2.01-2.463-2.77-3.89-0.767-1.42-1.363-2.943-1.79-4.57-0.42-1.627-0.63-3.33-0.63-5.11v0c0-1.773 0.21-3.477 0.63-5.11 0.427-1.633 1.023-3.163 1.79-4.59 0.76-1.427 1.683-2.72 2.77-3.88 1.08-1.167 2.283-2.163 3.61-2.99 1.327-0.833 2.753-1.477 4.28-1.93 1.533-0.46 3.137-0.69 4.81-0.69v0c1.68 0 3.29 0.23 4.83 0.69 1.533 0.453 2.963 1.097 4.29 1.93 1.327 0.827 2.533 1.823 3.62 2.99 1.08 1.16 2.007 2.453 2.78 3.88 0.773 1.427 1.37 2.957 1.79 4.59 0.427 1.633 0.64 3.337 0.64 5.11v0c0 1.76-0.213 3.457-0.64 5.09-0.42 1.64-1.017 3.17-1.79 4.59-0.773 1.427-1.7 2.723-2.78 3.89-1.087 1.16-2.293 2.157-3.62 2.99-1.327 0.827-2.757 1.47-4.29 1.93-1.54 0.453-3.15 0.68-4.83 0.68zM273.14 76.72v0c1.42 0 2.72-0.303 3.9-0.91 1.18-0.613 2.193-1.443 3.04-2.49 0.847-1.053 1.5-2.273 1.96-3.66 0.467-1.393 0.7-2.873 0.7-4.44v0c0-1.573-0.237-3.06-0.71-4.46-0.473-1.4-1.137-2.627-1.99-3.68-0.853-1.047-1.867-1.877-3.04-2.49-1.173-0.607-2.46-0.91-3.86-0.91v0c-1.4 0-2.683 0.303-3.85 0.91-1.173 0.613-2.183 1.443-3.03 2.49-0.847 1.053-1.51 2.28-1.99 3.68-0.48 1.4-0.72 2.887-0.72 4.46v0c0 1.567 0.24 3.047 0.72 4.44 0.48 1.387 1.143 2.607 1.99 3.66 0.847 1.047 1.857 1.877 3.03 2.49 1.167 0.607 2.45 0.91 3.85 0.91zM295.95 53.43v-6.71h19.58c1.9 0 3.6 0.283 5.1 0.85 1.5 0.573 2.76 1.337 3.78 2.29 1.027 0.947 1.813 2.053 2.36 3.32 0.547 1.26 0.82 2.573 0.82 3.94v0c0 1.253-0.133 2.35-0.4 3.29-0.273 0.947-0.667 1.787-1.18 2.52-0.513 0.733-1.143 1.38-1.89 1.94-0.747 0.56-1.6 1.07-2.56 1.53v0c0.827 0.42 1.557 1.067 2.19 1.94 0.64 0.867 1.123 1.993 1.45 3.38v0l1.24 4.81h3.05l0.05 7.2h-10.74l-1.47-8.79c-0.147-1.04-0.37-1.94-0.67-2.7-0.3-0.753-0.703-1.37-1.21-1.85-0.5-0.48-1.113-0.833-1.84-1.06-0.727-0.233-1.583-0.35-2.57-0.35v0h-3.15v8.06h3.39v6.69h-15.33v-6.69h3.83v-23.61zM312.74 53.43h-4.85v8.96h4.85c0.933 0 1.77-0.083 2.51-0.25 0.74-0.173 1.373-0.443 1.9-0.81 0.527-0.367 0.933-0.827 1.22-1.38 0.287-0.553 0.43-1.213 0.43-1.98v0c0-1.433-0.513-2.547-1.54-3.34-1.027-0.8-2.533-1.2-4.52-1.2zM333.3 53.43v-6.71h15.85v6.71h-3.91v10.77l11.84-10.33v-7.15h12.62v7.2h-2.76l-12.33 10.6 11.82 11.96h3v7.25h-12.28v-7.25l-11.91-11.92v12.48h3.91v6.69h-15.85v-6.69h3.83v-23.61z" fill="#0e1428" fill-rule="nonzero" stroke="none" stroke-width="1" stroke-linecap="butt" stroke-linejoin="miter" stroke-miterlimit="10" stroke-dasharray="" stroke-dashoffset="0" font-family="none" font-weight="none" font-size="none" text-anchor="none" style="mix-blend-mode: normal" data-fill-palette-color="primary" opacity="1"></path></g></svg></g></svg></g></svg></g></svg></g><g transform="matrix(1,0,0,1,0,0.33845775329341166)"><svg viewBox="0 0 119.87836015549537 135.38310131736526" height="135.38310131736526" width="119.87836015549537"><g><svg xmlns="http://www.w3.org/2000/svg" xmlns:xlink="http://www.w3.org/1999/xlink" version="1.1" x="0" y="0" viewBox="22.625 19.140541076660156 54.775001525878906 61.85945129394531" enable-background="new 0 0 100 100" xml:space="preserve" height="135.38310131736526" width="119.87836015549537" class="icon-icon-0" data-fill-palette-color="accent" id="icon-0"><path d="M76.7 30.3c0.4 0.4 0.7 1 0.7 1.6s-0.2 1.2-0.7 1.6L66.1 44.1c-0.9 0.9-2.3 0.9-3.2 0-0.9-0.9-0.9-2.3 0-3.2l9-9-5.2-5.2v5.2c0 1.2-1 2.2-2.2 2.2H38.1c-6 0-10.9 4.9-10.9 11 0 1.2-1 2.2-2.2 2.2-1.2 0-2.2-1-2.2-2.2 0-8.5 6.9-15.4 15.4-15.4h24.2v-8.3c0-0.9 0.5-1.7 1.4-2.1 0.8-0.3 1.8-0.2 2.4 0.5L76.7 30.3zM75.1 52.7c-1.2 0-2.2 1-2.2 2.2 0 6-4.9 11-11 11H35.5c-1.2 0-2.2 1-2.2 2.2v5.2l-5.2-5.2 9-9c0.9-0.9 0.9-2.3 0-3.2-0.9-0.9-2.3-0.9-3.2 0L23.3 66.5c-0.9 0.9-0.9 2.3 0 3.2l10.6 10.6c0.4 0.4 1 0.7 1.6 0.7 0.3 0 0.6-0.1 0.9-0.2 0.8-0.3 1.4-1.2 1.4-2.1v-8.3h24.2c8.5 0 15.4-6.9 15.4-15.4C77.4 53.7 76.3 52.7 75.1 52.7zM52.5 50c0-1.4-1.1-2.5-2.5-2.5s-2.5 1.1-2.5 2.5c0 1.4 1.1 2.5 2.5 2.5S52.5 51.4 52.5 50zM60.5 50c0-1.4-1.1-2.5-2.5-2.5-1.4 0-2.5 1.1-2.5 2.5 0 1.4 1.1 2.5 2.5 2.5C59.3 52.5 60.5 51.4 60.5 50zM44.6 50c0-1.4-1.1-2.5-2.5-2.5s-2.5 1.1-2.5 2.5c0 1.4 1.1 2.5 2.5 2.5S44.6 51.4 44.6 50z" fill="#f18805" data-fill-palette-color="accent"></path></svg></g></svg></g></svg></g><defs></defs></svg><rect width="395.52" height="99.84930149300646" fill="none" stroke="none" visibility="hidden"></rect></g></svg></g></svg>